<svg xmlns="http://www.w3.org/2000/svg" width="24" height="24" viewBox="0 0 24 24" fill="none">
  <defs>
    <linearGradient id="gradient" x1="0%" y1="0%" x2="0%" y2="100%">
      <stop offset="0%" style="stop-color:#3498db"/>
      <stop offset="100%" style="stop-color:#1abc9c"/>
    </linearGradient>
  </defs>
  <path d="M2 22V12a10 10 0 1 1 20 0v10" stroke="url(#gradient)" stroke-width="2" stroke-linecap="round" stroke-linejoin="round"/>
  <path d="M15 6.8v1.4a3 2.8 0 1 1-6 0V6.8" stroke="url(#gradient)" stroke-width="2" stroke-linecap="round" stroke-linejoin="round"/>
  <path d="M10 19a4 4 0 0 1-4-4v-3a6 6 0 1 1 12 0v3a4 4 0 0 1-4 4Z" stroke="url(#gradient)" stroke-width="2" stroke-linecap="round" stroke-linejoin="round"/>
  <path d="m9 19-2 3" stroke="url(#gradient)" stroke-width="2" stroke-linecap="round" stroke-linejoin="round"/>
  <path d="m15 19 2 3" stroke="url(#gradient)" stroke-width="2" stroke-linecap="round" stroke-linejoin="round"/>
</svg>